<svg width="242" height="200" viewBox="0 0 242 200" fill="none" xmlns="http://www.w3.org/2000/svg">
<path d="M48.0627 30.7031H212.351C229.738 30.7031 242.606 47.2763 238.696 64.6356L224.137 129.276C221.306 141.846 210.382 150.75 197.792 150.75H96.609C84.0188 150.75 73.0948 141.846 70.2638 129.276L48.0627 30.7031ZM48.0627 30.7031L45.2127 21.9426C41.5325 10.6303 31.2003 3 19.5625 3H3M200 62.1H170.45" stroke="black" stroke-width="5" stroke-linecap="round"/>
<path d="M112.109 185.929C112.109 193.7 106.003 200 98.471 200C90.9387 200 84.8325 193.7 84.8325 185.929C84.8325 178.157 90.9387 171.857 98.471 171.857C106.003 171.857 112.109 178.157 112.109 185.929Z" fill="black"/>
<path d="M203.033 185.929C203.033 193.7 196.926 200 189.394 200C181.862 200 175.756 193.7 175.756 185.929C175.756 178.157 181.862 171.857 189.394 171.857C196.926 171.857 203.033 178.157 203.033 185.929Z" fill="black"/>
</svg>
