<svg width="39" height="39" viewBox="0 0 39 39" fill="none" xmlns="http://www.w3.org/2000/svg">
<path opacity="0.3" fill-rule="evenodd" clip-rule="evenodd" d="M19.5001 0.975006C9.26902 0.975006 0.975098 9.26893 0.975098 19.5C0.975098 25.7344 4.05614 31.2491 8.77229 34.6043C11.7997 36.7581 15.5041 38.025 19.5001 38.025C23.4954 38.025 27.1992 36.7586 30.2263 34.6054C34.9434 31.2503 38.0251 25.7351 38.0251 19.5C38.0251 9.26893 29.7312 0.975006 19.5001 0.975006Z" fill="black"/>
<path d="M26.8126 18.3956C26.8126 22.553 23.4958 25.8413 19.5055 25.8413C15.5152 25.8413 12.1984 22.553 12.1984 18.3956C12.1984 14.2383 15.5152 10.95 19.5055 10.95C23.4958 10.95 26.8126 14.2383 26.8126 18.3956Z" fill="black"/>
<path d="M27.8415 31.2999C28.6485 31.99 29.1429 32.8829 29.4347 34.0675C29.5929 34.7097 29.2749 35.3665 28.6882 35.6879C25.9699 37.1769 22.84 38.025 19.5055 38.025C16.1668 38.025 13.0332 37.1748 10.3125 35.6823C9.72875 35.3621 9.41208 34.7096 9.56225 34.0686C9.8529 32.8281 10.3509 31.8944 11.1691 31.186C12.4252 30.0985 14.7967 29.228 19.4863 29.2256C24.1801 29.3312 26.5703 30.2127 27.8415 31.2999Z" fill="black"/>
</svg>
