<svg width="31" height="26" viewBox="0 0 31 26" fill="none" xmlns="http://www.w3.org/2000/svg">
<path d="M6.7754 5.05469H26.3732C28.4474 5.05469 29.9823 7.03169 29.5159 9.10246L27.7792 16.8134C27.4415 18.3128 26.1384 19.375 24.6365 19.375H12.5665C11.0646 19.375 9.76147 18.3128 9.42376 16.8134L6.7754 5.05469ZM6.7754 5.05469L6.43542 4.00965C5.99641 2.66021 4.7639 1.75 3.37564 1.75H1.3999M24.8999 8.8H21.3749" stroke="black" stroke-width="2" stroke-linecap="round"/>
<path d="M14.4152 23.5714C14.4152 24.4985 13.6868 25.25 12.7883 25.25C11.8898 25.25 11.1614 24.4985 11.1614 23.5714C11.1614 22.6444 11.8898 21.8929 12.7883 21.8929C13.6868 21.8929 14.4152 22.6444 14.4152 23.5714Z" fill="black"/>
<path d="M25.2614 23.5714C25.2614 24.4985 24.533 25.25 23.6345 25.25C22.7359 25.25 22.0075 24.4985 22.0075 23.5714C22.0075 22.6444 22.7359 21.8929 23.6345 21.8929C24.533 21.8929 25.2614 22.6444 25.2614 23.5714Z" fill="black"/>
</svg>
